<svg width="20" height="18" viewBox="0 0 20 18" fill="none" xmlns="http://www.w3.org/2000/svg">
<path d="M16.5137 9.70284H16.3946V9.10403C16.6772 8.94183 16.8687 8.64318 16.8687 8.29679C16.8687 4.54934 13.7877 1.5 10 1.5C6.21272 1.5 3.13128 4.54934 3.13128 8.29717C3.13128 8.64356 3.32277 8.9422 3.60502 9.10479V9.70359H3.4863C2.11562 9.70359 1 10.9649 1 12.5149V13.4537C1 15.0045 2.11562 16.2658 3.48668 16.2658H4.59349L4.69153 16.3628C4.78383 16.4541 4.90523 16.5 5.02626 16.5C5.14766 16.5 5.26906 16.4541 5.36136 16.3628C5.47051 16.2548 5.50766 16.1077 5.48774 15.9671C5.5697 15.8527 5.61872 15.7136 5.61872 15.5628V10.4059C5.61872 10.0174 5.30047 9.70284 4.9083 9.70284H4.55289V9.10403C4.83477 8.94183 5.02626 8.64318 5.02626 8.29679C5.02626 5.58285 7.25749 3.37486 10 3.37486C12.7425 3.37486 14.9734 5.58285 14.9734 8.29679C14.9734 8.64318 15.1649 8.94183 15.4467 9.10403V9.70284H15.0913C14.6995 9.70284 14.3809 10.0174 14.3809 10.4059V15.562C14.3809 15.7125 14.4303 15.8523 14.5119 15.966C14.4923 16.1066 14.5295 16.2533 14.6383 16.3617C14.7309 16.453 14.8523 16.4989 14.9734 16.4989C15.0944 16.4989 15.2162 16.453 15.3085 16.3617L15.4065 16.2646H16.5133C17.8844 16.2646 19 15.0034 19 13.4526V12.5142C19.0004 10.9649 17.8848 9.70284 16.5137 9.70284Z" stroke="#7FB0A9" stroke-width="1.01333"/>
</svg>
