<svg width="22" height="17" viewBox="0 0 22 17" fill="none" xmlns="http://www.w3.org/2000/svg">
<path d="M21 11.414C21 13.6702 19.2418 15.4992 17.0738 15.4992H4.92554C2.75757 15.4992 1 13.6702 1 11.414C1 9.37638 2.43338 7.68835 4.30868 7.37948C4.28492 7.23647 4.27181 7.08934 4.27181 6.93788C4.27181 5.50835 5.38555 4.34965 6.75978 4.34965C7.37264 4.34965 7.93425 4.58025 8.36753 4.96393C9.13997 3.15283 10.1302 1.5 12.9082 1.5C16.2774 1.5 17.8742 4.20372 17.8742 7.05673C17.8742 7.17606 17.8694 7.29429 17.8616 7.41127C19.6524 7.79097 21 9.43866 21 11.414Z" stroke="#7FB0A9" stroke-width="1.12266"/>
<path d="M14.7649 8.8249L11.193 12.2727C11.0411 12.4193 10.8393 12.5 10.6245 12.5C10.4097 12.5 10.2078 12.4193 10.056 12.2727L8.23553 10.5155C8.08365 10.3689 8 10.174 8 9.96673C8 9.75937 8.08365 9.56449 8.23553 9.41789C8.38734 9.27129 8.58923 9.19055 8.80405 9.19055C9.01882 9.19055 9.22077 9.27129 9.37258 9.41795L10.6244 10.6263L13.6277 7.72729C13.7796 7.58069 13.9815 7.5 14.1963 7.5C14.411 7.5 14.6129 7.58069 14.7648 7.72729C15.0784 8.03 15.0784 8.52231 14.7649 8.8249Z" fill="#7FB0A9"/>
</svg>
