<svg width="16" height="15" viewBox="0 0 16 15" fill="none" xmlns="http://www.w3.org/2000/svg">
<path d="M7.22458 13.0725L7.21355 13.062L7.2019 13.0522C5.11314 11.2948 3.42703 9.85699 2.25831 8.50459C1.09443 7.1578 0.5 5.95846 0.5 4.68478C0.5 2.62556 2.17222 1 4.4 1C5.61967 1 6.84291 1.54947 7.62644 2.43017L8 2.85006L8.37356 2.43017C9.15709 1.54947 10.3803 1 11.6 1C13.8278 1 15.5 2.62556 15.5 4.68478C15.5 5.95846 14.9056 7.1578 13.7417 8.50459C12.573 9.85699 10.8869 11.2948 8.7981 13.0522L8.78645 13.062L8.77542 13.0725L8 13.81L7.22458 13.0725Z" stroke="#7FB0A9"/>
</svg>
